<svg xmlns="http://www.w3.org/2000/svg" xmlns:xlink="http://www.w3.org/1999/xlink" width="64" height="64" id="western-union"><defs><path id="a" d="M1 26.1h62V38H1z"></path></defs><clipPath id="b"><use overflow="visible" xlink:href="#a"></use></clipPath><g clip-path="url(#b)"><defs><path id="c" d="M1 26.1h62V38H1z"></path></defs><clipPath id="d"><use overflow="visible" xlink:href="#c"></use></clipPath><g clip-path="url(#d)"><path fill-rule="evenodd" d="M63 37c0 .5-.4.9-.9.9H1.9c-.5 0-.9-.4-.9-.9V27c0-.5.4-.9.9-.9h60.2c.5 0 .9.4.9.9" clip-rule="evenodd"></path></g><g clip-path="url(#d)"><path fill="#474744" d="M28.4 26.1H1.9c-.5 0-.9.4-.9.9v10c0 .5.4.9.9.9h38.3L28.4 26.1z"></path></g><g clip-path="url(#d)"><path fill="#686865" d="M10.6 26.1H1.9c-.5 0-.9.4-.9.9v10c0 .5.4.9.9.9h20.5L10.6 26.1z"></path></g></g><defs><path id="e" d="M1 26.1h62V38H1z"></path></defs><clipPath id="f"><use overflow="visible" xlink:href="#e"></use></clipPath><g clip-path="url(#f)"><path fill="#FFDD12" d="M5.6 31.4H3.9l-.8-4h1.4l.3 2.5.4-2.5h1.6l.4 2.5.3-2.5h1.4l-.8 4H6.3L6 28.8"></path></g><g clip-path="url(#f)"><path fill="#FFDD12" d="M45.8 36.3h-3.9l-1.8-8.9h3.1l.8 5.5.8-5.5h3.6l.8 5.6.8-5.6h3.1l-1.9 8.9h-3.8l-.8-5.7"></path></g><g clip-path="url(#f)"><path fill="#FFDD12" d="M9.8 31.4v-4h3v1.1h-1.5v.4h1.4v1h-1.4v.5h1.6v1"></path></g><g clip-path="url(#f)"><path fill="#FFDD12" d="M22.9 31.4v-4h3v1.1h-1.5v.4h1.4v1h-1.4v.5H26v1"></path></g><g clip-path="url(#f)"><path fill="#FFDD12" d="M13.8 30.2h1.5c0 .1 0 .2.1.3.1.1.2.1.3.1.1 0 .2 0 .3-.1.1-.1.1-.1.1-.2v-.2L16 30c-.1 0-.2-.1-.5-.1-.2-.1-.4-.1-.6-.2-.3-.1-.6-.2-.8-.4-.2-.2-.2-.4-.2-.7 0-.4.2-.7.5-.9.3-.2.8-.3 1.4-.3.5 0 1 .1 1.2.3.3.2.4.5.4.8v.1H16c0-.1 0-.2-.1-.3-.1-.1-.1-.1-.3-.1-.1 0-.2 0-.2.1-.1 0-.1.1-.1.2s.2.3.5.3c.1 0 .2.1.3.1.6.1.9.3 1.1.5.2.2.3.4.3.8s-.2.8-.5 1c-.3.3-.8.4-1.4.4-.6 0-1-.1-1.4-.3-.3-.2-.5-.5-.5-.9l.1-.2"></path></g><g clip-path="url(#f)"><path fill="#FFDD12" d="M21.9 27.4v1.1h-1v2.9h-1.5v-2.9h-1v-1.1"></path></g><g clip-path="url(#f)"><path fill="#FFDD12" d="M27.1 31.4v-3.9h2c.6 0 1 .1 1.3.2.2.2.4.4.4.8 0 .2-.1.4-.2.6-.1.2-.3.3-.6.3.2 0 .4.1.5.2.1.1.2.3.2.7l.1.4v.3c0 .1.1.2.1.4h-1.5c0-.1-.1-.2-.1-.3v-.5c0-.3-.1-.4-.2-.5-.1-.1-.2-.1-.3-.1h-.2v1.4m0-2.3h.1c.2 0 .3 0 .4-.1.1-.1.1-.2.1-.3 0-.1 0-.2-.1-.3-.1-.1-.2-.1-.4-.1h-.2v.8z"></path></g><g clip-path="url(#f)"><path fill="#FFDD12" d="M33.2 29v2.4h-1.3v-4h1.9l.8 2.4v-2.4h1.3v4H34"></path></g><g clip-path="url(#f)"><path fill="#FFC715" d="M33.2 33.8v2.4h-1.3v-3.9h1.9l.8 2.3v-2.3h1.3v3.9H34"></path></g><g clip-path="url(#f)"><path fill="#FFC715" d="M20 33.8v2.4h-1.2v-3.9h1.8l.9 2.3v-2.3h1.2v3.9h-1.8"></path></g><g clip-path="url(#f)"><path fill="#FFC715" d="M13.8 32.3h1.5v2.5c0 .2 0 .3.1.4.1.1.1.1.3.1.1 0 .2 0 .3-.1.1-.1.1-.2.1-.4v-2.5h1.5v2.4c0 .6-.2 1-.5 1.2-.3.3-.8.4-1.4.4-.4 0-.7 0-.9-.1-.2-.1-.4-.2-.6-.4-.1-.1-.2-.3-.3-.4-.1-.2-.1-.4-.1-.7"></path></g><g clip-path="url(#f)"><path fill="#FFC715" d="M24 32.3h1.6v3.9H24z"></path></g><g clip-path="url(#f)"><path fill="#FFC715" d="M28.7 36.3c-.6 0-1.1-.2-1.5-.5-.3-.4-.5-.9-.5-1.5 0-.7.2-1.2.5-1.5.4-.4.9-.5 1.5-.5.7 0 1.2.2 1.5.5.4.4.5.9.5 1.5 0 .7-.2 1.2-.5 1.5-.3.3-.8.5-1.5.5m.1-3.1c-.2 0-.3.1-.3.2-.1.1-.1.4-.1.8s0 .6.1.8c.1.2.2.2.3.2.2 0 .3-.1.3-.2.1-.2.1-.4.1-.9 0-.4 0-.6-.1-.8-.1 0-.2-.1-.3-.1"></path></g><g clip-path="url(#f)"><path fill="#FFDD12" d="M39.6 36.2h-.5l-1.8-8.8h.5"></path></g><g clip-path="url(#f)"><path fill="#FFDD12" d="M41 36.2h-.5l-1.8-8.8h.5"></path></g><g clip-path="url(#f)"><path fill="#FFDD12" d="M55.6 27.4V33c0 .4-.1.6-.2.8-.1.2-.3.3-.6.3s-.5-.1-.6-.3-.2-.5-.2-.8v-5.5h-.7l-1.7 8.2c.3.3.7.5 1.1.6.5.2 1.2.3 2 .3 1.4 0 2.5-.3 3.2-.9.7-.6 1-1.5 1-2.8v-5.4"></path></g><g clip-path="url(#f)"><path fill="#FFC715" d="M50.6 27.4v5.4c0 .7.1 1.2.2 1.6.1.4.3.7.6 1l1.7-7.9"></path></g><g clip-path="url(#f)"><path fill="#FFDD12" d="M59.7 28.1h.2v.1h.2-.1c-.1 0-.1 0-.2-.1v-.2l.1-.1h.3l.1.1h-.2v-.1H60h.1c.1 0 .1 0 .2.1l.1.1v.2l-.4.1h-.1c-.1 0-.2 0-.2-.1v-.1"></path></g><g clip-path="url(#f)"><path fill="#FFDD12" d="M60.2 27.7h.3l.1.4.1-.4h.2v.6h-.2v-.4l-.1.4h-.1l-.1-.4v.4h-.2"></path></g></svg>