<svg xmlns="http://www.w3.org/2000/svg" width="512" height="512" id="western-union"><path fill="#FFDF1B" d="M7.9 256C7.9 119 119 7.9 256 7.9S504.1 119 504.1 256 393 504.1 256 504.1 7.9 393 7.9 256z"></path><path d="M42.5 208.4h15.2l3.6 26.9h.1l4-26.9h17.5l4 26.9h.1l3.6-26.9h15.2l-9.3 42.8H78.2l-4-27.8h-.1l-4 27.8H51.8l-9.3-42.8M116.2 208.4h32.5v11.1h-16.3v4.6h15.1v11.1h-15.1v4.8h16.8v11.2h-33v-42.8M183.9 220.5c-.1-2.7-1.5-3.6-3.7-3.6-2.7 0-3.9 1.2-3.9 2.5 0 1.5 1 2.2 2.8 2.7 3.3.9 9.2 2.1 13.6 4 5.4 2.2 7.8 6.1 7.8 11.3 0 10.5-8.5 14.9-20.6 14.9-10.3 0-19.8-3.2-19.8-14.3h16.2c0 1.2.2 2.4.9 3.3.6.8 1.7 1.4 3.3 1.4 2.5 0 4.1-1.6 4.1-3.5 0-1.6-1.2-2.4-2.8-2.9l-12-3.6c-6.6-2-8.9-5.9-8.9-11.4 0-8.9 7.2-13.9 19.7-13.9 10.7 0 18.7 3.3 18.7 13.3h-15.4M220.6 219.8H210v-11.4h38.1v11.4h-10.5v31.4h-17v-31.4M259.6 208.4h32.5v11.1h-16.3v4.6h15.1v11.1h-15.1v4.8h16.9v11.2h-33.1v-42.8M305.2 208.4h25.3c9.2 0 14.6 2.8 14.6 10.8 0 4.9-2.1 8.6-8.5 10.2v.1c4.2.4 6.4 2.2 7.2 5.5.9 3.7.8 9.7 2.8 16.2H330c-1-3.2-1.5-8.6-2.1-12.3-.4-2.1-1.4-3-4.2-3h-2v15.2h-16.6v-42.7m18.2 17.8c3.3 0 5.6-1.1 5.6-4.3 0-3.1-2.2-3.8-5.5-3.8h-1.5v8.1h1.4zM358.4 208.4h20.4l9 25.9h.2v-25.9h13.7v42.8h-20.3l-9.1-26.1h-.1v26.1h-13.8v-42.8M200 288c0 10.3-7.4 15.5-20.3 15.5s-20.3-5.2-20.3-15.5v-28.4h17v27.7c0 3.4 1.6 4.7 3.4 4.7 1.8 0 3.4-1.3 3.4-4.7v-27.7h17V288M214.1 259.5h20.3l9.1 25.9h.1v-25.9h13.7v42.8H237l-9.1-26.1h-.1v26.1h-13.7v-42.8M271.7 259.5h16.9v42.8h-16.9zM323.5 258.4c14.8 0 22.1 9.2 22.1 22.5s-7.3 22.5-22.1 22.5-22.1-9.2-22.1-22.5 7.4-22.5 22.1-22.5m0 33.9c2.6 0 4.6-1.5 4.6-11.4 0-9.7-1.8-11.4-4.6-11.4-2.7 0-4.6 1.7-4.6 11.4.1 9.9 2 11.4 4.6 11.4zM358.4 259.5h20.4l9 25.9h.2v-25.9h13.7v42.8h-20.3l-9.1-26.1h-.1v26.1h-13.8v-42.8M414 207.5h5.4v95H414zM452.4 208.4h5.4v94h-5.4zM462.5 213.5c0-3.1 2.6-5.7 5.7-5.7 3.2 0 5.7 2.6 5.7 5.7 0 3.2-2.5 5.7-5.7 5.7s-5.7-2.5-5.7-5.7m10.5 0c0-2.8-2-4.9-4.8-4.9s-4.8 2.2-4.8 4.9c0 2.8 2 5 4.8 5s4.8-2.2 4.8-5zm-2 3.2h-.9l-1.8-2.9h-1.4v2.9h-.8v-6.4h2.8c1.7 0 2.3.6 2.3 1.7 0 1.2-.9 1.7-2 1.7l1.8 3zm-3-3.6c.9 0 2.2.1 2.2-1.1 0-1-.8-1.1-1.6-1.1h-1.8v2.3h1.2z"></path></svg>